<svg id="Layer_1" data-name="Layer 1" xmlns="http://www.w3.org/2000/svg" viewBox="0 0 1005.65478 408.93604"><defs><style>.cls-1{fill:#4c4c4c;}.cls-2{fill:none;stroke:#00c7ff;stroke-miterlimit:10;stroke-width:5px;}</style></defs><title>logo</title><path class="cls-1" d="M232.94971,128.76611a87.995,87.995,0,0,1-2.67383,21.39307,58.77676,58.77676,0,0,1-8.84522,19.542A62.2367,62.2367,0,0,1,205.38574,185.335a70.02416,70.02416,0,0,1-23.86181,10.0791v2.46875a96.70542,96.70542,0,0,1,23.45019,6.99414,60.19951,60.19951,0,0,1,19.33643,13.57617,62.43561,62.43561,0,0,1,12.959,20.98145q4.72485,12.34278,4.73145,29.21,0,22.21583-9.46241,38.4668a78.07376,78.07376,0,0,1-25.30175,26.53515,116.333,116.333,0,0,1-35.99805,15.22168,174.04892,174.04892,0,0,1-41.55176,4.9375H111.79053q-10.905,0-23.44971-.61718-12.55444-.61671-25.50732-1.85157a182.3976,182.3976,0,0,1-23.65577-3.70214V63.76416q7.80983-1.23412,17.896-2.46826,10.07594-1.23414,21.59863-2.05713,11.513-.81959,23.65625-1.23438,12.12965-.405,24.0669-.41113a246.42314,246.42314,0,0,1,39.28955,3.08545,112.307,112.307,0,0,1,34.14648,10.90234,62.62091,62.62091,0,0,1,24.06739,21.8042Q232.9436,107.37671,232.94971,128.76611Zm-121.82764,53.894q5.87256,0,13.64063-.4043a123.6225,123.6225,0,0,0,12.79882-1.22168,76.60756,76.60756,0,0,0,27.48682-14.65625q11.53272-9.76758,11.53906-25.64844,0-10.58789-4.19775-17.50439a31.51187,31.51187,0,0,0-11.1211-10.99219,48.01464,48.01464,0,0,0-15.73584-5.69531,101.427,101.427,0,0,0-18.46191-1.63281q-10.91528,0-20.146.41162a131.9175,131.9175,0,0,0-14.26464,1.21484v76.12891Zm18.15332,123.834a80.96843,80.96843,0,0,0,19.95313-2.44336,52.568,52.568,0,0,0,17.07373-7.5332,39.75289,39.75289,0,0,0,11.93066-12.83106,35.67961,35.67961,0,0,0,4.52539-18.32714q0-13.44141-5.34814-21.17481a36.29613,36.29613,0,0,0-13.9878-12.01367,58.09081,58.09081,0,0,0-19.33642-5.50293,189.59714,189.59714,0,0,0-21.39307-1.22168H92.66016v78.60449a25.37589,25.37589,0,0,0,6.58252,1.22168q4.5227.40429,9.66845.61035,5.1394.2124,10.69629.41211Q125.16138,306.49708,129.27539,306.49414Z" transform="translate(0 -57.59326)"/><path class="cls-1" d="M281.08057,61.707H469.916v50.1919H337.44336V178.958h122.1875v50.1914H337.44336V299.5H471.97314v50.19141H281.08057Z" transform="translate(0 -57.59326)"/><path class="cls-1" d="M664.918,196.2373l2.05859-44.84375h-2.46875l-46.07812,75.28711h-9.87305l-48.13476-75.28711h-2.05665l2.46875,40.31836v157.9795H507.34961V61.707h57.18555l49.36914,79.8125h1.64648l48.957-79.8125h56.77344V349.69141H664.918Z" transform="translate(0 -57.59326)"/><path class="cls-2" d="M858.489,359.65111A36.31832,36.31832,0,0,0,842.44,350.464a70.678,70.678,0,0,0-18.37415-2.4358,66.24333,66.24333,0,0,0-23.24576,3.87484,48.69732,48.69732,0,0,0-17.7091,11.179,48.10821,48.10821,0,0,0-11.1806,18.153,64.40193,64.40193,0,0,0-3.01691,12.453H2.5v15.20893H768.10561a73.19907,73.19907,0,0,0,3.49476,21.041,51.06509,51.06509,0,0,0,10.40333,18.26194,45.1491,45.1491,0,0,0,17.04568,11.73345,62.54548,62.54548,0,0,0,23.46525,4.096,81.86138,81.86138,0,0,0,14.057-1.2179,86.52245,86.52245,0,0,0,13.39362-3.43257,69.14784,69.14784,0,0,0,11.844-5.31224,55.623,55.623,0,0,0,9.40821-6.6407l-6.84534-12.61965a40.72822,40.72822,0,0,1-6.29084,4.42934,58.63024,58.63024,0,0,1-9.38511,4.426,98.13313,98.13313,0,0,1-11.1509,3.43257,49.23808,49.23808,0,0,1-11.81266,1.439q-17.88486,0-28.59265-9.85213-10.70863-9.84718-10.70863-29.77425h85.44954q1.1065-18.81312-2.65529-30.66044Q865.45806,366.40651,858.489,359.65111Zm-71.39251,33.75966a38.26838,38.26838,0,0,1,4.07947-14.49931,28.62223,28.62223,0,0,1,8.16556-9.52043,31.42558,31.42558,0,0,1,11.476-5.20167,59.451,59.451,0,0,1,13.78969-1.54961q13.46129,0,21.73411,8.07975,8.27531,8.08468,9.38016,22.69127Z" transform="translate(0 -57.59326)"/><polygon class="cls-2" points="955.117 346.221 997.843 293.092 977.918 293.092 945.156 334.71 913.276 293.092 891.14 293.092 933.865 347.107 888.04 403.779 908.185 403.779 944.047 358.397 979.248 403.779 1000.5 403.779 955.117 346.221"/></svg>